<?xml version="1.0" encoding="UTF-8" standalone="no"?><!DOCTYPE svg PUBLIC "-//W3C//DTD SVG 1.1//EN" "http://www.w3.org/Graphics/SVG/1.1/DTD/svg11.dtd"><svg width="100%" height="100%" viewBox="0 0 1867 2134" version="1.1" xmlns="http://www.w3.org/2000/svg" xmlns:xlink="http://www.w3.org/1999/xlink" xml:space="preserve" xmlns:serif="http://www.serif.com/" style="fill-rule:evenodd;clip-rule:evenodd;stroke-linejoin:round;stroke-miterlimit:2;"><path d="M1666.67,133.333l-1466.67,0c-109.717,0 -200,90.284 -200,200l0,1466.67c0,109.717 90.283,200 200,200l571.875,0l0,-634.625l-262.5,0l0,-298.708l262.5,-0l0,-227.667c0,-258.958 154.167,-402 390.292,-402c113.083,0 231.333,20.167 231.333,20.167l0,254.166l-130.292,0c-128.375,0 -168.416,79.667 -168.416,161.375l-0,193.959l286.583,-0l-45.833,298.708l-240.75,0l-0,634.625l571.875,0c109.716,0 200,-90.283 200,-200l-0,-1466.67c-0,-109.716 -90.284,-200 -200,-200Z" style="fill:#676767;fill-rule:nonzero;"/></svg>