<?xml version="1.0" encoding="UTF-8" standalone="no"?><!DOCTYPE svg PUBLIC "-//W3C//DTD SVG 1.1//EN" "http://www.w3.org/Graphics/SVG/1.1/DTD/svg11.dtd"><svg width="100%" height="100%" viewBox="0 0 2667 2134" version="1.1" xmlns="http://www.w3.org/2000/svg" xmlns:xlink="http://www.w3.org/1999/xlink" xml:space="preserve" xmlns:serif="http://www.serif.com/" style="fill-rule:evenodd;clip-rule:evenodd;stroke-linejoin:round;stroke-miterlimit:2;"><path d="M464.167,1067.92l24.166,270.833l-24.166,284.583c-1.25,10.417 -9.167,18.334 -18.334,18.334c-9.166,-0 -17.5,-7.917 -17.5,-18.334l-23.333,-284.583l23.333,-270.833c0,-9.167 7.917,-17.5 17.5,-17.5c9.167,-0 17.084,8.333 18.334,17.5Zm89.166,-190c-11.666,-0 -19.583,9.166 -20.833,20.833l-20.833,440l20.833,284.583c1.25,11.667 9.167,20.834 20.833,20.834c10.417,-0 19.584,-9.167 19.584,-20.834l24.166,-284.583l-24.166,-440c-0,-11.667 -9.167,-20.833 -19.584,-20.833Zm106.25,-100.417c-12.916,0 -22.083,9.167 -23.333,22.083l-18.333,541.667l18.333,282.5c1.25,12.917 10.417,22.083 23.333,22.083c11.667,0 22.084,-9.166 22.084,-22.083l22.083,-282.5l-22.083,-541.667c-0,-12.916 -10.417,-22.083 -22.084,-22.083Zm-629.583,402.5c-5.833,0 -9.167,4.583 -10.417,10.417l-19.583,148.333l19.583,145.833c1.25,5.834 4.584,10.417 10.417,10.417c5.833,0 9.167,-4.583 10.417,-10.417l23.333,-145.833l-23.333,-148.333c-1.25,-5.834 -4.584,-10.417 -10.417,-10.417Zm98.333,-91.25c-5.833,0 -10.416,4.583 -10.416,10.417l-26.667,239.583l26.667,233.75c-0,7.083 4.583,11.667 10.416,11.667c5.834,-0 10.417,-4.584 11.667,-10.417l30,-235l-30,-239.583c-1.25,-5.834 -5.833,-10.417 -11.667,-10.417Zm105.417,-47.5c-7.083,0 -12.917,5.833 -13.75,13.75l-24.167,283.75l24.167,274.167c1.25,7.083 7.083,12.916 13.75,12.916c7.083,0 12.917,-5.833 12.917,-12.916l28.75,-274.167l-28.75,-283.75c-0,-7.917 -5.834,-13.75 -12.917,-13.75Zm105.417,-9.167c-7.917,0 -15,5.834 -15,15l-24.167,291.667l24.167,282.5c-0,9.167 7.083,15 15,15c7.916,0 15,-5.833 16.25,-15l26.666,-282.5l-26.666,-291.667c-1.25,-9.166 -8.334,-15 -16.25,-15Zm1005.83,-462.083c-4.583,-3.333 -11.667,-5.833 -17.5,-5.833c-9.167,-0 -17.5,3.333 -23.333,7.916c-7.917,7.084 -12.917,17.5 -13.75,27.917l-0,3.333l-13.75,736.25l7.083,135.417l7.083,132.083c1.25,19.584 17.5,35.834 37.084,35.834c19.583,-0 35.833,-16.25 35.833,-35.834l16.25,-267.5l-16.25,-739.583c-1.667,-12.5 -8.333,-24.167 -18.75,-30Zm-111.25,63.75c-5.833,-3.333 -11.667,-5.833 -18.333,-5.833c-6.667,-0 -12.917,2.5 -18.334,5.833c-9.166,5.833 -15,16.25 -15,27.917l-1.25,7.083l-11.666,670c-0,0 -0,1.25 12.916,273.333l0,1.25c0,7.084 2.5,13.75 7.084,19.584c7.083,7.916 16.25,12.916 26.666,12.916c9.167,0 17.5,-4.583 23.334,-10.416c7.083,-5.834 10.416,-13.75 10.416,-23.334l1.25,-27.916l12.917,-244.167l-13.75,-678.333c-1.25,-11.667 -7.083,-22.084 -16.25,-27.917Zm-464.167,93.75c-12.916,-0 -24.166,11.667 -24.166,25.417l-18.334,585.833l18.334,280c1.25,13.75 11.666,24.167 24.166,24.167c13.75,-0 24.167,-10.417 25.417,-24.167l20.833,-280l-20.833,-585.833c-0.833,-13.75 -11.25,-25.417 -25.417,-25.417Zm1569.58,261.667c-45,-0 -87.917,9.166 -127.5,25.416c-26.667,-295 -274.167,-526.666 -576.25,-526.666c-74.167,-0 -145.834,13.75 -209.584,39.166c-25.416,9.167 -32.5,18.334 -32.5,38.334l0,1040.42c0,20.834 16.25,35.834 35.834,38.334l909.583,-0c180.417,-0 327.5,-145.834 327.5,-326.25c0.417,-181.667 -146.667,-328.75 -327.083,-328.75Zm-1236.25,-251.25c-17.5,-0 -31.25,13.75 -32.5,32.5l-13.75,569.583l13.75,273.333c1.25,17.5 15,31.25 32.5,31.25c17.5,0 31.25,-13.75 31.25,-31.25l16.25,-273.333l-16.25,-569.583c-1.25,-18.75 -13.75,-32.5 -31.25,-32.5Zm-223.334,-32.5c-13.75,-0 -26.666,12.916 -26.666,27.916l-16.25,605.417l16.25,278.75c1.25,15 12.916,26.667 26.666,26.667c15,-0 26.667,-11.667 27.917,-26.667l18.333,-278.75l-18.333,-605.417c-1.25,-15 -12.917,-27.916 -27.917,-27.916Zm111.25,14.166c-16.25,0 -28.75,12.917 -28.75,28.75l-16.25,590.417l16.25,276.667c1.25,16.25 12.917,28.75 28.75,28.75c15.834,-0 28.75,-12.917 28.75,-28.75l17.5,-276.667l-17.5,-590.417c0,-16.25 -12.5,-28.75 -28.75,-28.75Z" style="fill:#676767;fill-rule:nonzero;"/></svg>