<?xml version="1.0" encoding="UTF-8" standalone="no"?><!DOCTYPE svg PUBLIC "-//W3C//DTD SVG 1.1//EN" "http://www.w3.org/Graphics/SVG/1.1/DTD/svg11.dtd"><svg width="100%" height="100%" viewBox="0 0 2134 2134" version="1.1" xmlns="http://www.w3.org/2000/svg" xmlns:xlink="http://www.w3.org/1999/xlink" xml:space="preserve" xmlns:serif="http://www.serif.com/" style="fill-rule:evenodd;clip-rule:evenodd;stroke-linejoin:round;stroke-miterlimit:2;"><path d="M1066.67,2100c-570.834,0 -1033.33,-462.5 -1033.33,-1033.33c0,-570.834 462.5,-1033.33 1033.33,-1033.33c570.833,0 1033.33,462.5 1033.33,1033.33c0,570.833 -462.5,1033.33 -1033.33,1033.33Zm483.333,-1216.67l-483.333,0l-0,-295.416c-0,-44.584 -54.167,-67.084 -85.417,-35.417l-476.25,478.75c-19.583,19.583 -19.583,50.833 0,70.417l476.25,478.75c31.667,31.666 85.417,9.166 85.417,-35.417l-0,-295l483.333,0c27.5,0 50,-22.5 50,-50l0,-266.667c0,-27.5 -22.5,-50 -50,-50Z" style="fill:#676767;fill-rule:nonzero;"/></svg>