<?xml version="1.0" encoding="UTF-8" standalone="no"?><!DOCTYPE svg PUBLIC "-//W3C//DTD SVG 1.1//EN" "http://www.w3.org/Graphics/SVG/1.1/DTD/svg11.dtd"><svg width="100%" height="100%" viewBox="0 0 2134 2134" version="1.1" xmlns="http://www.w3.org/2000/svg" xmlns:xlink="http://www.w3.org/1999/xlink" xml:space="preserve" xmlns:serif="http://www.serif.com/" style="fill-rule:evenodd;clip-rule:evenodd;stroke-linejoin:round;stroke-miterlimit:2;"><path d="M1066.67,33.333c-570.834,0 -1033.33,462.5 -1033.33,1033.33c0,570.833 462.5,1033.33 1033.33,1033.33c570.833,0 1033.33,-462.5 1033.33,-1033.33c0,-570.834 -462.5,-1033.33 -1033.33,-1033.33Zm-0,1866.67c-460.417,0 -833.334,-372.917 -833.334,-833.333c0,-460.417 372.917,-833.334 833.334,-833.334c460.416,0 833.333,372.917 833.333,833.334c0,460.416 -372.917,833.333 -833.333,833.333Zm424.166,-1092.5l-259.166,259.167l259.166,259.166c19.584,19.584 19.584,51.25 0,70.834l-94.166,94.166c-19.584,19.584 -51.25,19.584 -70.834,0l-259.166,-259.166l-259.167,259.166c-19.583,19.584 -51.25,19.584 -70.833,0l-94.167,-94.166c-19.583,-19.584 -19.583,-51.25 0,-70.834l259.167,-259.166l-259.167,-259.167c-19.583,-19.583 -19.583,-51.25 0,-70.833l94.167,-94.167c19.583,-19.583 51.25,-19.583 70.833,0l259.167,259.167l259.166,-259.167c19.584,-19.583 51.25,-19.583 70.834,0l94.166,94.167c19.584,19.583 19.584,51.25 0,70.833Z" style="fill:#676767;fill-rule:nonzero;"/></svg>