<?xml version="1.0" encoding="UTF-8" standalone="no"?><!DOCTYPE svg PUBLIC "-//W3C//DTD SVG 1.1//EN" "http://www.w3.org/Graphics/SVG/1.1/DTD/svg11.dtd"><svg width="100%" height="100%" viewBox="0 0 1867 2134" version="1.1" xmlns="http://www.w3.org/2000/svg" xmlns:xlink="http://www.w3.org/1999/xlink" xml:space="preserve" xmlns:serif="http://www.serif.com/" style="fill-rule:evenodd;clip-rule:evenodd;stroke-linejoin:round;stroke-miterlimit:2;"><path d="M933.333,844.417c-121.891,0.045 -222.166,100.358 -222.166,222.25c-0,121.922 100.327,222.25 222.25,222.25c121.922,-0 222.25,-100.328 222.25,-222.25c-0.092,-121.92 -100.414,-222.205 -222.334,-222.25Zm519.625,-170.834c-22.859,-57.932 -68.776,-103.848 -126.708,-126.708c-87.5,-34.542 -295.833,-26.792 -392.917,-26.792c-97.083,0 -305.208,-8.041 -392.958,26.792c-57.932,22.86 -103.849,68.776 -126.708,126.708c-34.5,87.5 -26.792,296.042 -26.792,393.042c0,97 -7.708,305.292 26.958,393.083c22.86,57.932 68.777,103.849 126.709,126.709c87.5,34.541 295.833,26.791 392.958,26.791c97.125,0 305.167,8.042 392.917,-26.791c57.932,-22.86 103.848,-68.777 126.708,-126.709c34.792,-87.5 26.792,-296.041 26.792,-393.041c-0,-97 8,-305.25 -26.792,-393.042l-0.167,-0.042Zm-519.625,734.75c-187.432,0 -341.666,-154.234 -341.666,-341.666c-0,-187.433 154.234,-341.667 341.666,-341.667c187.433,-0 341.667,154.234 341.667,341.667c0,0.139 0,0.278 0,0.417c0,187.204 -154.046,341.25 -341.25,341.25c-0.139,-0 -0.278,-0 -0.417,-0.001Zm355.75,-617.916c-0.014,-0 -0.027,-0 -0.041,-0c-43.75,-0 -79.75,-36.001 -79.75,-79.75c-0,-43.75 36,-79.75 79.75,-79.75c43.749,-0 79.75,36 79.75,79.75c0,0.111 0,0.222 0,0.333c0,43.643 -35.899,79.561 -79.542,79.583l-0.167,-0.166Zm377.584,-657.084l-1466.67,0c-109.717,0 -200,90.284 -200,200l-0,1466.67c-0,109.717 90.283,200 200,200l1466.67,0c109.716,0 200,-90.283 200,-200l-0,-1466.67c-0,-109.716 -90.284,-200 -200,-200Zm-71.334,1208.33c-5.375,106.791 -29.75,201.416 -107.708,279.166c-77.958,77.75 -172.5,102.625 -279.167,107.709c-110.041,6.208 -439.958,6.208 -550,-0c-106.791,-5.375 -201.083,-29.792 -279.166,-107.709c-78.084,-77.916 -102.625,-172.583 -107.709,-279.166c-6.208,-110.084 -6.208,-440.042 0,-550c5.375,-106.792 29.459,-201.417 107.709,-279.167c78.25,-77.75 172.791,-102.333 279.166,-107.417c110.042,-6.208 439.959,-6.208 550,0c106.792,5.375 201.375,29.792 279.167,107.709c77.792,77.916 102.625,172.583 107.708,279.375c6.209,109.666 6.209,439.333 0,549.5Z" style="fill:#676767;fill-rule:nonzero;"/></svg>