<?xml version="1.0" encoding="UTF-8" standalone="no"?><!DOCTYPE svg PUBLIC "-//W3C//DTD SVG 1.1//EN" "http://www.w3.org/Graphics/SVG/1.1/DTD/svg11.dtd"><svg width="100%" height="100%" viewBox="0 0 2134 2134" version="1.1" xmlns="http://www.w3.org/2000/svg" xmlns:xlink="http://www.w3.org/1999/xlink" xml:space="preserve" xmlns:serif="http://www.serif.com/" style="fill-rule:evenodd;clip-rule:evenodd;stroke-linejoin:round;stroke-miterlimit:2;"><path d="M33.333,1066.67c0,570.833 462.5,1033.33 1033.33,1033.33c570.833,0 1033.33,-462.5 1033.33,-1033.33c0,-570.834 -462.5,-1033.33 -1033.33,-1033.33c-570.834,0 -1033.33,462.5 -1033.33,1033.33Zm1866.67,-0c0,460.416 -372.917,833.333 -833.333,833.333c-460.417,0 -833.334,-372.917 -833.334,-833.333c0,-460.417 372.917,-833.334 833.334,-833.334c460.416,0 833.333,372.917 833.333,833.334Zm-300,-83.334l0,166.667c0,27.5 -22.5,50 -50,50l-483.333,0l-0,279.167c-0,44.583 -53.75,66.666 -85.417,35.416l-412.5,-412.5c-19.583,-19.583 -19.583,-51.25 0,-70.833l412.5,-412.5c31.667,-31.667 85.417,-9.167 85.417,35.417l-0,279.166l483.333,0c27.5,0 50,22.5 50,50Z" style="fill:#676767;fill-rule:nonzero;"/></svg>