<?xml version="1.0" encoding="UTF-8" standalone="no"?><!DOCTYPE svg PUBLIC "-//W3C//DTD SVG 1.1//EN" "http://www.w3.org/Graphics/SVG/1.1/DTD/svg11.dtd"><svg width="100%" height="100%" viewBox="0 0 1867 2134" version="1.1" xmlns="http://www.w3.org/2000/svg" xmlns:xlink="http://www.w3.org/1999/xlink" xml:space="preserve" xmlns:serif="http://www.serif.com/" style="fill-rule:evenodd;clip-rule:evenodd;stroke-linejoin:round;stroke-miterlimit:2;"><path d="M933.333,511.667c-302.916,-0 -549.166,246.25 -549.583,549.166c0,103.75 29.167,205 84.167,292.084l12.916,20.833l-55.416,202.5l207.916,-54.583l20,12.083c84.167,50 180.834,76.667 279.584,76.667l0.416,-0c302.5,-0 555.417,-246.25 555.417,-549.167c0,-146.667 -63.333,-284.583 -167.083,-388.333c-104.167,-104.167 -241.667,-161.25 -388.334,-161.25Zm322.917,785c-13.75,38.75 -79.583,73.75 -111.25,78.333c-52.5,7.917 -93.333,3.75 -197.917,-41.25c-165.416,-71.667 -273.75,-238.333 -282.083,-249.167c-8.333,-10.833 -67.5,-89.583 -67.5,-170.833c0,-81.25 42.5,-121.25 57.917,-137.917c15,-16.666 32.916,-20.833 44.166,-20.833c10.834,0 22.084,0 31.667,0.417c10,0.416 23.75,-3.75 37.083,28.333c13.75,32.917 46.667,114.167 50.834,122.5c4.166,8.333 7.083,17.917 1.25,28.75c-31.667,63.333 -65.417,60.833 -48.334,90c63.75,109.583 127.5,147.5 224.584,196.25c16.666,8.333 26.25,7.083 35.833,-4.167c9.583,-10.833 41.25,-48.333 52.083,-64.583c10.834,-16.667 22.084,-13.75 37.084,-8.333c15,5.416 96.25,45.416 112.916,53.75c16.667,8.333 27.5,12.5 31.667,19.166c3.75,7.917 3.75,41.25 -10,79.584Zm410.417,-1163.33l-1466.67,0c-110.417,0 -200,89.584 -200,200l-0,1466.67c-0,110.417 89.583,200 200,200l1466.67,0c110.416,0 200,-89.583 200,-200l-0,-1466.67c-0,-110.416 -89.584,-200 -200,-200Zm-733.75,1588.33c-110.834,-0 -219.584,-27.917 -315.834,-80.417l-350.416,92.083l93.75,-342.5c-57.917,-100 -88.334,-213.75 -88.334,-330.416c0.417,-364.167 296.667,-660.417 660.834,-660.417c176.666,-0 342.5,68.75 467.5,193.75c124.583,125 199.583,290.833 199.583,467.5c-0,364.167 -302.917,660.417 -667.083,660.417Z" style="fill:#676767;fill-rule:nonzero;"/></svg>